<?xml version="1.0" encoding="UTF-8"?>
<svg width="1024px" height="1024px" viewBox="0 0 1024 1024" version="1.1" xmlns="http://www.w3.org/2000/svg" xmlns:xlink="http://www.w3.org/1999/xlink">
    <defs>
        <path d="M223.833812,2.44202408 L360.763232,81.4982615 C363.238441,82.9273239 364.763232,85.56834 364.763232,88.4264647 L364.763232,371.698225 C364.763232,374.556948 363.237807,377.198423 360.76178,378.627266 L149.035282,500.80845 C146.560293,502.236694 143.511424,502.236374 141.036735,500.807611 L4.10731468,421.751374 C1.63210606,420.322312 0.107314677,417.681295 0.107314677,414.823171 L0.107314677,131.551411 C0.107314677,128.692687 1.63273999,126.051212 4.10876701,124.622369 L215.835265,2.44118578 C218.310254,1.01294172 221.359123,1.01326126 223.833812,2.44202408 Z" id="path-1"></path>
        <path d="M223.833812,2.44202408 L360.763232,81.4982615 C363.238441,82.9273239 364.763232,85.56834 364.763232,88.4264647 L364.763232,602.153247 C364.763232,605.01197 363.237807,607.653445 360.76178,609.082288 L149.035282,731.263472 C146.560293,732.691716 143.511424,732.691396 141.036735,731.262633 L4.10731468,652.206396 C1.63210606,650.777333 0.107314677,648.136317 0.107314677,645.278193 L0.107314677,131.551411 C0.107314677,128.692687 1.63273999,126.051212 4.10876701,124.622369 L215.835265,2.44118578 C218.310254,1.01294172 221.359123,1.01326126 223.833812,2.44202408 Z" id="path-3"></path>
    </defs>
    <g id="icon/Zone-basic" stroke="none" stroke-width="1" fill="none" fill-rule="evenodd">
        <g id="Group" transform="translate(0.000000, 400.000000)">
            <path d="M528.016094,41.2593046 L968.649181,295.999819 L1008.03528,296 L1008.03528,328 C1008.03728,330.722605 1007.34438,333.481833 1005.88391,336.008047 C1004.48136,338.434082 1002.46624,340.449206 1000.0402,341.851757 L528.016094,614.740695 C518.107083,620.469343 505.892917,620.469343 495.983906,614.740695 L23.9597964,341.851757 C18.6564697,338.785772 15.7722581,333.141865 15.9752113,327.419038 L15.9756845,296 L55.3501807,295.999819 L495.983906,41.2593046 C505.892917,35.5306574 518.107083,35.5306574 528.016094,41.2593046 Z" id="Combined-Shape" fill="#B18BCC"></path>
            <path d="M23.9597964,282.148243 L495.983906,9.25930456 C505.892917,3.53065736 518.107083,3.53065736 528.016094,9.25930456 L1000.0402,282.148243 C1007.69032,286.570965 1010.30664,296.357933 1005.88391,304.008047 C1004.48136,306.434082 1002.46624,308.449206 1000.0402,309.851757 L528.016094,582.740695 C518.107083,588.469343 505.892917,588.469343 495.983906,582.740695 L23.9597964,309.851757 C16.3096821,305.429035 13.693364,295.642067 18.1160863,287.991953 C19.5186376,285.565918 21.5337618,283.550794 23.9597964,282.148243 Z" id="Path-2-Copy" fill="#EFE1FA"></path>
        </g>
        <g id="Z#/icon/Zone-basic" transform="translate(128.000000, 105.000000)">
            <g id="Group" transform="translate(101.250000, 16.500000)">
                <g id="Group-Copy-4" transform="translate(0.000000, 116.044645)">
                    <mask id="mask-2" fill="white">
                        <use xlink:href="#path-1"></use>
                    </mask>
                    <use id="Polygon" fill="#B18BCC" xlink:href="#path-1"></use>
                    <path d="M219.834781,0.133181933 L217.499992,168.768731 L149.035766,208.29657 C146.560558,209.725633 145.035766,212.366649 145.035766,215.224773 L145.035766,496.189927 C145.035766,498.399066 146.826627,500.189927 149.035766,500.189927 C149.737629,500.189927 150.427136,500.005251 151.03504,499.654448 L364.763232,376.318145 L364.763232,376.318145 L364.763232,83.8076626 L219.834781,0.133181933 Z" id="Path-5" fill="#783BA3" mask="url(#mask-2)"></path>
                    <path d="M6.10949335,123.467808 L215.835265,2.44118578 C218.310254,1.01294172 221.359123,1.01326126 223.833812,2.44202408 L358.76178,80.3427224 C360.67495,81.4472919 361.330451,83.8936535 360.225881,85.806824 C359.874666,86.4151471 359.36945,86.9202568 358.761054,87.2713447 L149.035282,208.297967 C146.560293,209.726211 143.511424,209.725892 141.036735,208.297129 L6.10876718,130.396431 C4.19559669,129.291861 3.54009607,126.8455 4.64466557,124.932329 C4.99588106,124.324006 5.50109666,123.818896 6.10949335,123.467808 Z" id="Path-2" fill="#E4CEF5" mask="url(#mask-2)"></path>
                </g>
                <g id="Group-Copy" transform="translate(200.121466, 0.642034)">
                    <mask id="mask-4" fill="white">
                        <use xlink:href="#path-3"></use>
                    </mask>
                    <use id="Polygon" fill="#B18BCC" xlink:href="#path-3"></use>
                    <path d="M219.834781,0.133181933 L217.499992,168.768731 L149.035766,208.29657 C146.560558,209.725633 145.035766,212.366649 145.035766,215.224773 L145.035766,726.644949 C145.035766,728.854088 146.826627,730.644949 149.035766,730.644949 C149.737629,730.644949 150.427136,730.460273 151.03504,730.10947 L364.763232,606.773167 L364.763232,606.773167 L364.763232,83.8076626 L219.834781,0.133181933 Z" id="Path-5" fill="#783BA3" mask="url(#mask-4)"></path>
                    <path d="M6.10949335,123.467808 L215.835265,2.44118578 C218.310254,1.01294172 221.359123,1.01326126 223.833812,2.44202408 L358.76178,80.3427224 C360.67495,81.4472919 361.330451,83.8936535 360.225881,85.806824 C359.874666,86.4151471 359.36945,86.9202568 358.761054,87.2713447 L149.035282,208.297967 C146.560293,209.726211 143.511424,209.725892 141.036735,208.297129 L6.10876718,130.396431 C4.19559669,129.291861 3.54009607,126.8455 4.64466557,124.932329 C4.99588106,124.324006 5.50109666,123.818896 6.10949335,123.467808 Z" id="Path-2" fill="#E4CEF5" mask="url(#mask-4)"></path>
                </g>
            </g>
        </g>
    </g>
</svg>