<?xml version="1.0" encoding="UTF-8"?>
<svg width="1024px" height="1024px" viewBox="0 0 1024 1024" version="1.1" xmlns="http://www.w3.org/2000/svg" xmlns:xlink="http://www.w3.org/1999/xlink">
    <defs>
        <path d="M285.25,2.30940108 L558.021925,159.794345 C560.497133,161.223408 562.021925,163.864424 562.021925,166.722549 L562.021925,261.855441 C562.021925,264.713566 560.497133,267.354582 558.021925,268.783645 L285.25,426.268589 C282.774791,427.697651 279.725209,427.697651 277.25,426.268589 L4.47807514,268.783645 C2.00286653,267.354582 0.478075142,264.713566 0.478075142,261.855441 L0.478075142,166.722549 C0.478075142,163.864424 2.00286653,161.223408 4.47807514,159.794345 L277.25,2.30940108 C279.725209,0.880338717 282.774791,0.880338717 285.25,2.30940108 Z" id="path-1"></path>
        <path d="M285.25,2.30940108 L558.021925,159.794345 C560.497133,161.223408 562.021925,163.864424 562.021925,166.722549 L562.021925,261.855441 C562.021925,264.713566 560.497133,267.354582 558.021925,268.783645 L285.25,426.268589 C282.774791,427.697651 279.725209,427.697651 277.25,426.268589 L4.47807514,268.783645 C2.00286653,267.354582 0.478075142,264.713566 0.478075142,261.855441 L0.478075142,166.722549 C0.478075142,163.864424 2.00286653,161.223408 4.47807514,159.794345 L277.25,2.30940108 C279.725209,0.880338717 282.774791,0.880338717 285.25,2.30940108 Z" id="path-3"></path>
        <path d="M285.25,2.30940108 L558.021925,159.794345 C560.497133,161.223408 562.021925,163.864424 562.021925,166.722549 L562.021925,261.855441 C562.021925,264.713566 560.497133,267.354582 558.021925,268.783645 L285.25,426.268589 C282.774791,427.697651 279.725209,427.697651 277.25,426.268589 L4.47807514,268.783645 C2.00286653,267.354582 0.478075142,264.713566 0.478075142,261.855441 L0.478075142,166.722549 C0.478075142,163.864424 2.00286653,161.223408 4.47807514,159.794345 L277.25,2.30940108 C279.725209,0.880338717 282.774791,0.880338717 285.25,2.30940108 Z" id="path-5"></path>
    </defs>
    <g id="icon/主机-basic" stroke="none" stroke-width="1" fill="none" fill-rule="evenodd">
        <g id="Group" transform="translate(0.000000, 400.000000)">
            <path d="M528.016094,41.2593046 L968.649181,295.999819 L1008.03528,296 L1008.03528,328 C1008.03728,330.722605 1007.34438,333.481833 1005.88391,336.008047 C1004.48136,338.434082 1002.46624,340.449206 1000.0402,341.851757 L528.016094,614.740695 C518.107083,620.469343 505.892917,620.469343 495.983906,614.740695 L23.9597964,341.851757 C18.6564697,338.785772 15.7722581,333.141865 15.9752113,327.419038 L15.9756845,296 L55.3501807,295.999819 L495.983906,41.2593046 C505.892917,35.5306574 518.107083,35.5306574 528.016094,41.2593046 Z" id="Combined-Shape" fill="#8BCCC1"></path>
            <path d="M23.9597964,282.148243 L495.983906,9.25930456 C505.892917,3.53065736 518.107083,3.53065736 528.016094,9.25930456 L1000.0402,282.148243 C1007.69032,286.570965 1010.30664,296.357933 1005.88391,304.008047 C1004.48136,306.434082 1002.46624,308.449206 1000.0402,309.851757 L528.016094,582.740695 C518.107083,588.469343 505.892917,588.469343 495.983906,582.740695 L23.9597964,309.851757 C16.3096821,305.429035 13.693364,295.642067 18.1160863,287.991953 C19.5186376,285.565918 21.5337618,283.550794 23.9597964,282.148243 Z" id="Path-2-Copy" fill="#E1FAF6"></path>
        </g>
        <g id="Z#/icon/主机-basic" transform="translate(152.000000, 128.000000)">
            <g id="Group-2" transform="translate(78.750000, 0.000000)">
                <g id="Group-Copy-2" transform="translate(0.000000, 291.093750)">
                    <g id="Group-Copy-3">
                        <mask id="mask-2" fill="white">
                            <use xlink:href="#path-1"></use>
                        </mask>
                        <use id="Polygon" fill="#8BCCC1" xlink:href="#path-1"></use>
                        <polygon id="Path-4" mask="url(#mask-2)" points="17.6677641 181.246173 52.7642547 201.509141 70.3125 211.640625 70.3125 299.136122 52.7642547 289.004638 17.6677641 268.74167"></polygon>
                        <polygon id="Path-4-Copy" mask="url(#mask-2)" points="70.3125 211.640625 105.408991 231.903593 122.957236 242.035077 122.957236 329.530575 105.408991 319.39909 70.3125 299.136122"></polygon>
                        <path d="M281.25,0 L421.635962,243.15562 L285.25,321.898092 C282.774791,323.327154 281.25,325.96817 281.25,328.826295 L281.25,421.649787 C281.25,423.858926 283.040861,425.649787 285.25,425.649787 C285.952147,425.649787 286.641923,425.464962 287.25,425.113888 L562.021925,266.474244 L562.021925,266.474244 L562.021925,162.103746 L281.25,0 Z" id="Path-5" fill="#3BA392" mask="url(#mask-2)"></path>
                        <path d="M6.47807514,158.639645 L277.25,2.30940108 C279.725209,0.880338717 282.774791,0.880338717 285.25,2.30940108 L556.026737,158.642423 C557.939907,159.746993 558.595408,162.193354 557.490839,164.106525 C557.140237,164.713785 556.636161,165.218212 556.029144,165.569235 L421.861012,243.15562 L421.861012,243.15562 L285.248397,321.902712 C282.773915,323.329068 279.726694,323.328012 277.253202,321.89994 L6.47807514,165.567848 C4.56490465,164.463279 3.90940403,162.016917 5.01397353,160.103746 C5.36504685,159.49567 5.8699983,158.990718 6.47807514,158.639645 Z" id="Path-2" fill="#CEF5EE" mask="url(#mask-2)"></path>
                    </g>
                </g>
                <g id="Group-Copy" transform="translate(0.000000, 145.546875)">
                    <g id="Group-Copy-3">
                        <mask id="mask-4" fill="white">
                            <use xlink:href="#path-3"></use>
                        </mask>
                        <use id="Polygon" fill="#8BCCC1" xlink:href="#path-3"></use>
                        <path d="M156.156697,291.302118 L225.647434,331.45308 C232.655479,335.502249 236.972038,342.981587 236.972038,351.075318 C236.972038,355.243076 233.593402,358.621712 229.425644,358.621712 C228.099573,358.621712 226.796915,358.272283 225.648867,357.608619 L156.155264,317.435688 C149.155082,313.389016 144.84375,305.916844 144.84375,297.831171 C144.84375,293.66665 148.219762,290.290638 152.384283,290.290638 C153.708764,290.290638 155.00988,290.6395 156.156697,291.302118 Z" id="Path-9" fill="#2C7A6D" mask="url(#mask-4)"></path>
                        <polygon id="Path-4" mask="url(#mask-4)" points="17.6677641 181.246173 52.7642547 201.509141 70.3125 211.640625 70.3125 299.136122 52.7642547 289.004638 17.6677641 268.74167"></polygon>
                        <polygon id="Path-4-Copy" mask="url(#mask-4)" points="70.3125 211.640625 105.408991 231.903593 122.957236 242.035077 122.957236 329.530575 105.408991 319.39909 70.3125 299.136122"></polygon>
                        <path d="M43.9962177,223.07463 C52.4726267,228.083063 57.6819851,237.188081 57.704113,247.033558 L57.7102424,249.760706 C57.7214378,254.741956 53.6924126,258.789132 48.7111628,258.800328 C47.0879392,258.803976 45.4938152,258.369497 44.0969258,257.542715 C35.6322306,252.532688 30.4262991,243.440021 30.3909279,233.603853 L30.3811206,230.876581 C30.3631979,225.892567 34.3890099,221.837697 39.3730233,221.819774 C40.9989947,221.813927 42.5963411,222.247489 43.9962177,223.07463 Z" id="Path" fill="#2C7A6D" mask="url(#mask-4)"></path>
                        <path d="M96.6409536,253.469082 C105.117363,258.477515 110.326721,267.582534 110.348849,277.428011 L110.354978,280.155158 C110.366174,285.136408 106.337149,289.183585 101.355899,289.19478 C99.7326752,289.198429 98.1385511,288.763949 96.7416617,287.937168 C88.2769665,282.92714 83.071035,273.834473 83.0356638,263.998306 L83.0258565,261.271033 C83.0079338,256.28702 87.0337458,252.232149 92.0177592,252.214227 C93.6437306,252.20838 95.2410771,252.641941 96.6409536,253.469082 Z" id="Path-Copy" fill="#2C7A6D" mask="url(#mask-4)"></path>
                        <path d="M281.25,0 L421.635962,243.15562 L285.25,321.898092 C282.774791,323.327154 281.25,325.96817 281.25,328.826295 L281.25,421.649787 C281.25,423.858926 283.040861,425.649787 285.25,425.649787 C285.952147,425.649787 286.641923,425.464962 287.25,425.113888 L562.021925,266.474244 L562.021925,266.474244 L562.021925,162.103746 L281.25,0 Z" id="Path-5" fill="#3BA392" mask="url(#mask-4)"></path>
                        <path d="M6.47807514,158.639645 L277.25,2.30940108 C279.725209,0.880338717 282.774791,0.880338717 285.25,2.30940108 L556.026737,158.642423 C557.939907,159.746993 558.595408,162.193354 557.490839,164.106525 C557.140237,164.713785 556.636161,165.218212 556.029144,165.569235 L421.861012,243.15562 L421.861012,243.15562 L285.248397,321.902712 C282.773915,323.329068 279.726694,323.328012 277.253202,321.89994 L6.47807514,165.567848 C4.56490465,164.463279 3.90940403,162.016917 5.01397353,160.103746 C5.36504685,159.49567 5.8699983,158.990718 6.47807514,158.639645 Z" id="Path-2" fill="#CEF5EE" mask="url(#mask-4)"></path>
                    </g>
                </g>
                <g id="Group">
                    <g id="Group-Copy-3">
                        <mask id="mask-6" fill="white">
                            <use xlink:href="#path-5"></use>
                        </mask>
                        <use id="Polygon" fill="#8BCCC1" xlink:href="#path-5"></use>
                        <path d="M156.156697,291.302118 L225.647434,331.45308 C232.655479,335.502249 236.972038,342.981587 236.972038,351.075318 C236.972038,355.243076 233.593402,358.621712 229.425644,358.621712 C228.099573,358.621712 226.796915,358.272283 225.648867,357.608619 L156.155264,317.435688 C149.155082,313.389016 144.84375,305.916844 144.84375,297.831171 C144.84375,293.66665 148.219762,290.290638 152.384283,290.290638 C153.708764,290.290638 155.00988,290.6395 156.156697,291.302118 Z" id="Path-9" fill="#2C7A6D" mask="url(#mask-6)"></path>
                        <polygon id="Path-4" mask="url(#mask-6)" points="17.6677641 181.246173 52.7642547 201.509141 70.3125 211.640625 70.3125 299.136122 52.7642547 289.004638 17.6677641 268.74167"></polygon>
                        <polygon id="Path-4-Copy" mask="url(#mask-6)" points="70.3125 211.640625 105.408991 231.903593 122.957236 242.035077 122.957236 329.530575 105.408991 319.39909 70.3125 299.136122"></polygon>
                        <path d="M43.9962177,223.07463 C52.4726267,228.083063 57.6819851,237.188081 57.704113,247.033558 L57.7102424,249.760706 C57.7214378,254.741956 53.6924126,258.789132 48.7111628,258.800328 C47.0879392,258.803976 45.4938152,258.369497 44.0969258,257.542715 C35.6322306,252.532688 30.4262991,243.440021 30.3909279,233.603853 L30.3811206,230.876581 C30.3631979,225.892567 34.3890099,221.837697 39.3730233,221.819774 C40.9989947,221.813927 42.5963411,222.247489 43.9962177,223.07463 Z" id="Path" fill="#2C7A6D" mask="url(#mask-6)"></path>
                        <path d="M96.6409536,253.469082 C105.117363,258.477515 110.326721,267.582534 110.348849,277.428011 L110.354978,280.155158 C110.366174,285.136408 106.337149,289.183585 101.355899,289.19478 C99.7326752,289.198429 98.1385511,288.763949 96.7416617,287.937168 C88.2769665,282.92714 83.071035,273.834473 83.0356638,263.998306 L83.0258565,261.271033 C83.0079338,256.28702 87.0337458,252.232149 92.0177592,252.214227 C93.6437306,252.20838 95.2410771,252.641941 96.6409536,253.469082 Z" id="Path-Copy" fill="#2C7A6D" mask="url(#mask-6)"></path>
                        <path d="M281.25,0 L421.635962,243.15562 L285.25,321.898092 C282.774791,323.327154 281.25,325.96817 281.25,328.826295 L281.25,421.649787 C281.25,423.858926 283.040861,425.649787 285.25,425.649787 C285.952147,425.649787 286.641923,425.464962 287.25,425.113888 L562.021925,266.474244 L562.021925,266.474244 L562.021925,162.103746 L281.25,0 Z" id="Path-5" fill="#3BA392" mask="url(#mask-6)"></path>
                        <path d="M6.47807514,158.639645 L277.25,2.30940108 C279.725209,0.880338717 282.774791,0.880338717 285.25,2.30940108 L556.026737,158.642423 C557.939907,159.746993 558.595408,162.193354 557.490839,164.106525 C557.140237,164.713785 556.636161,165.218212 556.029144,165.569235 L421.861012,243.15562 L421.861012,243.15562 L285.248397,321.902712 C282.773915,323.329068 279.726694,323.328012 277.253202,321.89994 L6.47807514,165.567848 C4.56490465,164.463279 3.90940403,162.016917 5.01397353,160.103746 C5.36504685,159.49567 5.8699983,158.990718 6.47807514,158.639645 Z" id="Path-2" fill="#CEF5EE" mask="url(#mask-6)"></path>
                    </g>
                </g>
            </g>
        </g>
    </g>
</svg>