<?xml version="1.0" encoding="UTF-8"?>
<!--
  - Copyright (c) 2023 OceanBase
  - OCP Express is licensed under Mulan PSL v2.
  - You can use this software according to the terms and conditions of the Mulan PSL v2.
  - You may obtain a copy of Mulan PSL v2 at:
  -          http://license.coscl.org.cn/MulanPSL2
  - THIS SOFTWARE IS PROVIDED ON AN "AS IS" BASIS, WITHOUT WARRANTIES OF ANY KIND,
  - EITHER EXPRESS OR IMPLIED, INCLUDING BUT NOT LIMITED TO NON-INFRINGEMENT,
  - MERCHANTABILITY OR FIT FOR A PARTICULAR PURPOSE.
  - See the Mulan PSL v2 for more details.
  -->

<svg width="90px" height="82px" viewBox="0 0 90 82" version="1.1" xmlns="http://www.w3.org/2000/svg" xmlns:xlink="http://www.w3.org/1999/xlink">
    <defs>
        <polygon id="path-1" points="0 0.127311692 4.77535016 0.127311692 4.77535016 9.94063005 0 9.94063005"></polygon>
        <polygon id="path-3" points="0.0103703067 0.127311692 4.78560306 0.127311692 4.78560306 9.94063005 0.0103703067 9.94063005"></polygon>
        <polygon id="path-5" points="0.0150962048 0.0202827286 3.60922243 0.0202827286 3.60922243 3.67136194 0.0150962048 3.67136194"></polygon>
        <polygon id="path-7" points="0.00889224738 0.0311672986 3.93075983 0.0311672986 3.93075983 3.97054712 0.00889224738 3.97054712"></polygon>
        <polygon id="path-9" points="0 0 23.7787178 0 23.7787178 23.8027895 0 23.8027895"></polygon>
    </defs>
    <g id="L1-集群概览-吾笙" stroke="none" stroke-width="1" fill="none" fill-rule="evenodd">
        <g id="1.5-集群概览-暂无数据" transform="translate(-675.000000, -408.000000)">
            <g id="3.功能类/常用/文件为空" transform="translate(669.000000, 399.000000)">
                <g id="编组-6" transform="translate(6.284837, 8.978338)">
                    <g id="编组" transform="translate(0.000000, -0.000000)">
                        <polygon id="Fill-1" fill="#CED0DB" points="10.3108476 0.111980539 6.26320322 12.6538009 8.7103475 12.6538009 12.7583769 0.111980539"></polygon>
                        <g transform="translate(0.000000, 1.455747)">
                            <g>
                                <mask id="mask-2" fill="white">
                                    <use xlink:href="#path-1"></use>
                                </mask>
                                <g id="Clip-3"></g>
                                <path d="M4.54015942,0.127311692 L1.89944886,0.127311692 L0.235112464,0.127311692 C0.10519013,0.127311692 -7.8266466e-05,0.230763612 -7.8266466e-05,0.358444049 L-7.8266466e-05,1.9940612 L-7.8266466e-05,8.07388054 L-7.8266466e-05,9.70949769 C-7.8266466e-05,9.83717813 0.10519013,9.94063005 0.235112464,9.94063005 L1.89944886,9.94063005 L4.54015942,9.94063005 C4.67008176,9.94063005 4.77535016,9.83717813 4.77535016,9.70949769 L4.77535016,8.30501289 C4.77535016,8.17733246 4.67008176,8.07388054 4.54015942,8.07388054 L1.89944886,8.07388054 L1.89944886,1.9940612 L4.54015942,1.9940612 C4.67008176,1.9940612 4.77535016,1.89060928 4.77535016,1.76331343 L4.77535016,0.358444049 C4.77535016,0.230763612 4.67008176,0.127311692 4.54015942,0.127311692" id="Fill-2" fill="#E4E6EF" mask="url(#mask-2)"></path>
                            </g>
                            <g transform="translate(14.401030, 0.000000)">
                                <mask id="mask-4" fill="white">
                                    <use xlink:href="#path-3"></use>
                                </mask>
                                <g id="Clip-5"></g>
                                <path d="M4.550608,0.127311692 L2.8862716,0.127311692 L0.245561037,0.127311692 C0.115638703,0.127311692 0.0103703067,0.230763612 0.0103703067,0.358444049 L0.0103703067,1.76331343 C0.0103703067,1.89060928 0.115638703,1.9940612 0.245561037,1.9940612 L2.8862716,1.9940612 L2.8862716,8.07388054 L0.245561037,8.07388054 C0.115638703,8.07388054 0.0103703067,8.17733246 0.0103703067,8.30501289 L0.0103703067,9.70949769 C0.0103703067,9.83717813 0.115638703,9.94063005 0.245561037,9.94063005 L2.8862716,9.94063005 L4.550608,9.94063005 C4.68053033,9.94063005 4.78579873,9.83717813 4.78579873,9.70949769 L4.78579873,8.30501289 L4.78579873,1.76331343 L4.78579873,0.358444049 C4.78579873,0.230763612 4.68053033,0.127311692 4.550608,0.127311692" id="Fill-4" fill="#E4E6EF" mask="url(#mask-4)"></path>
                            </g>
                        </g>
                    </g>
                    <g id="编组" transform="translate(78.469675, 66.863466) scale(-1, 1) rotate(45.000000) translate(-78.469675, -66.863466) translate(59.656069, 61.152458)">
                        <g transform="translate(11.858534, 7.342724)">
                            <mask id="mask-6" fill="white">
                                <use xlink:href="#path-5"></use>
                            </mask>
                            <g id="Clip-2"></g>
                            <path d="M3.59969867,2.03211355 C3.4984016,3.03494253 2.61603403,3.76465513 1.6288654,3.6617511 C0.641378228,3.55884706 -0.0769390544,2.66248168 0.0246765612,1.6593291 C0.125973632,0.656500117 1.0083412,-0.0732124878 1.99550983,0.030015149 C2.98267846,0.132919188 3.70099574,1.02928456 3.59969867,2.03211355" id="Fill-1" fill="#E4E6EF" mask="url(#mask-6)"></path>
                        </g>
                        <path d="M27.0015037,2.69049198 C26.8993878,3.69887427 26.0098883,4.43262777 25.0147405,4.32915388 C24.0192717,4.22568 23.2951484,3.32402548 23.3972642,2.31564318 C23.4997012,1.30726089 24.3892008,0.573507394 25.3843485,0.677306669 C26.3794962,0.780455164 27.1036195,1.68210968 27.0015037,2.69049198" id="Fill-3" fill="#E4E6EF"></path>
                        <path d="M3.61380528,2.02308653 C3.51178374,3.03157114 2.62197848,3.76501449 1.62660311,3.66164931 C0.631523456,3.55798453 -0.0926816192,2.65676002 0.00963563517,1.64827541 C0.111657175,0.639790803 1.00146243,-0.0936525473 1.99654209,0.00971263078 C2.99191746,0.113077809 3.71612253,1.01460193 3.61380528,2.02308653" id="Fill-5" fill="#E4E6EF"></path>
                        <g transform="translate(33.269775, 4.672642)">
                            <mask id="mask-8" fill="white">
                                <use xlink:href="#path-7"></use>
                            </mask>
                            <g id="Clip-8"></g>
                            <path d="M3.92058166,2.20194381 C3.809838,3.28405011 2.84707229,4.07103652 1.76972211,3.96012545 C0.692371929,3.84889289 -0.0911554759,2.88187692 0.0192681168,1.79977061 C0.130011778,0.717664304 1.09277748,-0.0693221003 2.17012766,0.0415889738 C3.24715778,0.152821529 4.03100525,1.1198375 3.92058166,2.20194381" id="Fill-7" fill="#E4E6EF" mask="url(#mask-8)"></path>
                        </g>
                        <polygon id="Fill-9" fill="#E4E6EF" points="13.6950822 9.34528495 13.6509068 9.31713044 1.97642227 1.82114808 2.06934288 1.66880088 13.6999567 9.13694156 25.4801575 2.36828409 25.518849 2.38392548 35.5756009 6.43598539 35.5116228 6.60272267 25.4932578 2.56630416"></polygon>
                    </g>
                    <g id="资源-38" transform="translate(9.741353, 20.256256)" fill-rule="nonzero">
                        <path d="M40.7989647,0.0428567826 L6.17667922,0.0428567826 C5.23736236,0.0428567826 4.47589559,0.797780132 4.47589559,1.72902528 L4.47589559,49.6991138 L35.4053546,49.6991138 C35.4053546,54.8489534 39.8472345,58.447518 45.0502151,58.4209679 C50.1639046,58.3955278 54.3471236,54.0979059 54.3471236,49.0288618 L54.3471236,13.4085524 L45.3195059,13.4085524 C43.8795091,13.4085524 40.7989647,10.2835201 40.7989647,8.85660002 L40.7989647,0.0428567826 Z" id="路径" fill="#E2E7F2"></path>
                        <path d="M35.4733859,49.5480612 L0,49.5480612 C0,54.1484909 3.37534685,57.4744583 7.80376223,58.2114544 L9.3628139,58.3407274 L44.9070658,58.2704703 C39.7366836,58.2704703 35.3415752,54.3339695 35.4733859,49.5480612 Z" id="路径" fill="#393D65"></path>
                        <rect id="矩形" fill="#393D65" x="11.3194237" y="4.54211638" width="9.07084604" height="8.99289864" rx="4.49644932"></rect>
                        <rect id="矩形" fill="#A3B5D6" x="11.3038332" y="17.9612073" width="34.0156726" height="2.24822466" rx="1.12411233"></rect>
                        <rect id="矩形" fill="#A3B5D6" x="11.3038332" y="24.7304713" width="34.0156726" height="2.24822466" rx="1.12411233"></rect>
                        <rect id="矩形" fill="#A3B5D6" x="11.3038332" y="31.4997352" width="34.0156726" height="2.24822466" rx="1.12411233"></rect>
                        <path d="M40.7947127,11.257985 L40.7947127,13.0144105 C40.7947127,13.3918442 40.9531635,13.7522478 41.2321945,14.0090168 C41.5112254,14.2657857 41.8855368,14.395707 42.2651819,14.3675607 L54.3931865,13.4731888 L40.7947127,11.257985 Z" id="路径" fill="#BABFD8" opacity="0.6"></path>
                        <path d="M47.8246184,6.73554057 L40.7798309,0 L40.798256,12.909025 C40.798256,13.21944 41.0520783,13.4710811 41.3651839,13.4710811 L54.3931865,13.4710811 L47.8246184,6.73554057 Z" id="路径" fill="#F2F5F9"></path>
                    </g>
                    <g id="编组-3备份" transform="translate(46.886877, 9.975931)">
                        <g id="分组备份" transform="translate(0.013043, 0.040350)">
                            <g id="分组">
                                <mask id="mask-10" fill="white">
                                    <use xlink:href="#path-9"></use>
                                </mask>
                                <g id="Clip-2"></g>
                                <path d="M11.8893575,-2.65656163e-06 C5.32303376,-2.65656163e-06 -2.65387504e-06,5.32842239 -2.65387504e-06,11.9013934 C-2.65387504e-06,18.4743379 5.32303376,23.8027895 11.8893575,23.8027895 C18.4556813,23.8027895 23.7787178,18.4743379 23.7787178,11.9013934 C23.7787178,5.32842239 18.4556813,-2.65656163e-06 11.8893575,-2.65656163e-06" id="Fill-1" fill="#597EF7" mask="url(#mask-10)"></path>
                            </g>
                            <path d="M14.6967009,7.23177176 C15.3221396,7.79363454 15.6428869,8.56422337 15.6428869,9.52743949 C15.6428869,10.3140474 15.4343985,10.9722371 15.049507,11.4859364 C14.9051362,11.6625181 14.4561271,12.0799436 13.6863441,12.7381067 C13.3976556,12.9949697 13.1731378,13.2679048 13.0287935,13.556859 C12.8523904,13.8779311 12.7721903,14.2310944 12.7721903,14.6324477 L12.7721903,15.0133986 C12.7721903,15.1725532 12.6432916,15.3015824 12.4843245,15.3015824 L11.3440605,15.3015824 C11.1850934,15.3015824 11.0561947,15.1725532 11.0561947,15.0133986 L11.0561947,14.6324477 C11.0561947,14.0384671 11.1524508,13.5247412 11.3609392,13.1073422 C11.585457,12.6578786 12.1948663,11.9996623 13.1891672,11.1167275 L13.4618263,10.8117276 C13.7504617,10.4424656 13.8948325,10.0571844 13.8948325,9.63978548 C13.8948325,9.07792269 13.7344323,8.6444781 13.4297409,8.32337949 C13.1089671,8.00233402 12.6599579,7.841798 12.0825809,7.841798 C11.3609392,7.841798 10.8317034,8.06654312 10.5109561,8.51605991 C10.2600853,8.85089294 10.1182357,9.31908536 10.0853807,9.89954407 C10.0767821,10.0513666 9.95008613,10.1695304 9.79817832,10.1695304 L8.67346608,10.1695304 C8.50921775,10.1695304 8.37713439,10.0320268 8.38573294,9.86785129 C8.43963315,8.83939002 8.77510949,8.02361308 9.40439634,7.40835341 C10.0779498,6.71807243 11.00808,6.3809282 12.1788369,6.3809282 C13.2212525,6.3809282 14.0551797,6.65383677 14.6967009,7.23177176" id="Fill-3" fill="#FFFFFF"></path>
                            <path d="M12.0544153,17.915392 L11.6297953,17.915392 C11.2780242,17.915392 10.9928653,17.6299445 10.9928653,17.2778172 L10.9928653,16.8527674 C10.9928653,16.5006401 11.2780242,16.2151926 11.6297953,16.2151926 L12.0544153,16.2151926 C12.4061864,16.2151926 12.6913453,16.5006401 12.6913453,16.8527674 L12.6913453,17.2778172 C12.6913453,17.6299445 12.4061864,17.915392 12.0544153,17.915392" id="Fill-5" fill="#FFFFFF"></path>
                        </g>
                    </g>
                </g>
            </g>
        </g>
    </g>
</svg>