<?xml version="1.0" encoding="UTF-8"?>
<svg width="70px" height="63px" viewBox="0 0 70 63" version="1.1" xmlns="http://www.w3.org/2000/svg" xmlns:xlink="http://www.w3.org/1999/xlink">
    <title>icon/集群-basic备份</title>
    <g id="仪表盘" stroke="none" stroke-width="1" fill="none" fill-rule="evenodd">
        <g id="1.1-仪表盘" transform="translate(-857.000000, -129.000000)">
            <g id="icon/集群-basic备份" transform="translate(856.000000, 120.000000)">
                <g id="Group" transform="translate(0.000000, 28.125000)">
                    <path d="M1.12329032,20.8125 L3.89157017,20.8119482 L34.8738684,2.90104485 C35.5705957,2.49824935 36.4294043,2.49824935 37.1261316,2.90104485 L68.1075702,20.8119482 L70.8774807,20.8125 L70.8774298,23.0571188 C70.8785353,23.2502725 70.8298702,23.4462663 70.7262127,23.6255658 C70.6275958,23.7961464 70.4859074,23.9378348 70.3153268,24.0364517 L37.1261316,43.2239551 C36.4294043,43.6267507 35.5705957,43.6267507 34.8738684,43.2239551 L1.68467318,24.0364517 C1.32607408,23.8291366 1.1247811,23.4541888 1.12257017,23.0678812 L1.12329032,20.8125 Z" id="Combined-Shape" fill="#259DFF"></path>
                    <path d="M1.68467318,19.8385483 L34.8738684,0.651044852 C35.5705957,0.248249345 36.4294043,0.248249345 37.1261316,0.651044852 L70.3153268,19.8385483 C70.8532255,20.149521 71.0371853,20.8376672 70.7262127,21.3755658 C70.6275958,21.5461464 70.4859074,21.6878348 70.3153268,21.7864517 L37.1261316,40.9739551 C36.4294043,41.3767507 35.5705957,41.3767507 34.8738684,40.9739551 L1.68467318,21.7864517 C1.14677452,21.475479 0.962814653,20.7873328 1.27378732,20.2494342 C1.3724042,20.0788536 1.51409263,19.9371652 1.68467318,19.8385483 Z" id="Path-2-Copy" fill="#DBF3FF"></path>
                </g>
                <g id="编组" transform="translate(10.687500, 9.000000)">
                    <g id="编组" transform="translate(3.411255, 0.000000)">
                        <polygon id="Fill-1" fill="#096DD9" points="22.7416992 38.5178064 22.7761109 50.625 43.8519287 38.4579016 43.8519287 38.3796789 43.8177646 26.350708"></polygon>
                        <polygon id="Fill-2" fill="#40A9FF" points="0 37.3713443 10.5111851 43.4564209 10.579834 19.235959 0.0684019703 13.1506348"></polygon>
                        <polygon id="Fill-3" fill="#40A9FF" points="33.3709717 18.248031 33.3365604 30.3552246 12.2607422 18.1881262 12.2951535 6.08093262"></polygon>
                        <polygon id="Fill-4" fill="#BAE7FF" points="0.0494384766 13.150511 10.5646095 19.2315674 21.0113525 13.1507585 10.4956875 7.06970215"></polygon>
                        <polygon id="Fill-5" fill="#096DD9" points="21.1102295 13.1506348 21.0757313 37.3757668 10.579834 43.4564209 10.6143322 19.2312889"></polygon>
                        <polygon id="Fill-6" fill="#BAE7FF" points="12.2607422 32.4316406 22.7126211 38.5125732 43.7530518 26.3509554 33.30142 20.2697754"></polygon>
                        <polygon id="Fill-7" fill="#BAE7FF" points="22.7618945 0 12.3101807 6.08093262 33.3507764 18.2427979 43.8024902 12.1618652 43.8024902 12.1616178"></polygon>
                        <polygon id="Fill-8" fill="#096DD9" points="33.3560322 18.2462895 33.3215332 30.3552246 43.8176779 24.2705528 43.8519287 12.2398516 43.8519287 12.1618652"></polygon>
                        <polygon id="Fill-9" fill="#40A9FF" points="12.2954886 44.5405758 22.7911377 50.625 22.7568877 38.5163124 12.2607422 32.4316406"></polygon>
                        <polygon id="Fill-10" fill="#40A9FF" points="24.4720459 25.2219925 33.3364373 30.3552246 33.3709717 18.2427979"></polygon>
                    </g>
                </g>
            </g>
        </g>
    </g>
</svg>