<?xml version="1.0" encoding="UTF-8"?>
<svg width="228px" height="30px" viewBox="0 0 228 30" version="1.1" xmlns="http://www.w3.org/2000/svg" xmlns:xlink="http://www.w3.org/1999/xlink">
    <title>编组</title>
    <defs>
        <polygon id="path-1" points="0 0 22.5349705 0 22.5349705 8.67398716 0 8.67398716"></polygon>
    </defs>
    <g id="页面-1" stroke="none" stroke-width="1" fill="none" fill-rule="evenodd">
        <g id="1.1-诊断分析-会话管理" transform="translate(-450.000000, -138.000000)">
            <g id="编组" transform="translate(450.000000, 138.000000)">
                <path d="M120.535136,17.8105866 L124.124284,10.7741641 L125.311541,17.8105866 L120.535136,17.8105866 Z M122.287397,4.52426782 L110.887746,25.6609143 L116.562681,25.6609143 L118.409525,21.9871401 L126.010952,21.9871401 L126.605824,25.6609143 L132.278271,25.6609143 L128.096739,4.52426782 L122.287397,4.52426782 Z" id="Fill-1" fill="#006AFF"></path>
                <g>
                    <path d="M70.3497884,17.4180702 C69.9216792,18.1299262 69.3940098,18.7447109 68.7717581,19.2674023 C68.1495063,19.7900938 67.4625404,20.1982909 66.7183274,20.4870157 C65.9716253,20.7782295 65.2075002,20.9225919 64.4309301,20.9225919 C63.6543599,20.9225919 62.9400149,20.7782295 62.2928731,20.4870157 C61.6457314,20.1982909 61.1056169,19.7900938 60.6700407,19.2674023 C60.2344644,18.7447109 59.9233386,18.1299262 59.7366631,17.4180702 C59.5499876,16.7087032 59.5275865,15.9321331 59.6719489,15.0908488 C59.8163113,14.2520534 60.1025471,13.4754833 60.5306563,12.7661163 C60.9587655,12.0542604 61.4814569,11.4394756 62.0962416,10.9142952 C62.7085373,10.3916038 63.3905252,9.98589563 64.1347382,9.69468182 C64.8814403,9.40595702 65.6430764,9.26159462 66.4221356,9.26159462 C67.1987057,9.26159462 67.9130507,9.40595702 68.5601925,9.69468182 C69.2073343,9.98589563 69.7524268,10.3916038 70.197959,10.9142952 C70.6434912,11.4394756 70.9571061,12.0542604 71.1437816,12.7661163 C71.3304571,13.4754833 71.3503692,14.2520534 71.2084958,15.0908488 C71.0641334,15.9321331 70.7778976,16.7087032 70.3497884,17.4180702 M74.9370281,7.1583838 C74.1056998,6.15033602 73.0428939,5.36132083 71.7461213,4.78884925 C70.4493487,4.22135568 68.9783456,3.93511989 67.3306231,3.93511989 C65.6654775,3.93511989 64.0924251,4.22135568 62.611466,4.78884925 C61.1305069,5.36132083 59.8038663,6.15033602 58.636522,7.1583838 C57.4716668,8.1689206 56.4909981,9.35119887 55.6970049,10.7052186 C54.9055007,12.0592384 54.3753422,13.5227744 54.1090185,15.0908488 C53.8402058,16.6614121 53.8700738,18.1224591 54.2011118,19.4789679 C54.5296607,20.8329876 55.1071103,22.0152659 55.9284825,23.0258027 C56.7523438,24.0338505 57.8076827,24.8228657 59.0944993,25.3928483 C60.3813159,25.9628308 61.8572969,26.2465776 63.5224425,26.2465776 C65.1676761,26.2465776 66.7382394,25.9628308 68.2266656,25.3928483 C69.7175807,24.8228657 71.0516884,24.0338505 72.2289886,23.0258027 C73.4062889,22.0152659 74.3894466,20.8329876 75.1809508,19.4789679 C75.974944,18.1224591 76.5051025,16.6614121 76.7739152,15.0908488 C77.0402389,13.5227744 77.0103709,12.0592384 76.681822,10.7052186 C76.350784,9.35119887 75.7708454,8.1689206 74.9370281,7.1583838" id="Fill-2" fill="#006AFF"></path>
                    <polygon id="Fill-4" fill="#006AFF" points="110.822285 21.0062225 100.052352 21.0062225 100.674604 17.3623164 111.091098 17.3623164 111.88758 12.7103626 101.468597 12.7103626 102.073426 9.17846179 112.843358 9.17846179 113.637352 4.52401892 97.5459222 4.52401892 93.9368622 25.6606654 110.035759 25.6581764"></polygon>
                    <polygon id="Fill-6" fill="#006AFF" points="147.885091 17.2045134 141.670041 4.52302331 136.348544 4.52302331 132.739484 25.6596698 138.060981 25.6596698 140.266241 12.9781797 146.481291 25.6596698 151.775409 25.6596698 155.384469 4.52302331 150.09284 4.52302331"></polygon>
                    <path d="M165.168008,20.8660914 C164.528333,21.2220194 163.540197,21.3987389 162.198623,21.3987389 L160.329379,21.3987389 L161.095993,16.9135485 L162.965237,16.9135485 C164.304323,16.9135485 165.232722,17.092757 165.750436,17.446196 C166.270638,17.802124 166.462292,18.3721065 166.327885,19.1561437 C166.193479,19.9401809 165.807683,20.5126525 165.168008,20.8660914 L165.168008,20.8660914 Z M162.494815,8.72720485 L164.172405,8.72720485 C165.837551,8.72720485 166.554385,9.41168174 166.320418,10.7756575 C166.086452,12.1396333 165.13814,12.8216212 163.472994,12.8216212 L161.795404,12.8216212 L162.494815,8.72720485 Z M171.639426,19.5220277 C171.748942,18.8848419 171.77881,18.2874803 171.72903,17.7274537 C171.67925,17.1674272 171.527421,16.6621588 171.268564,16.2141376 C171.012196,15.7636273 170.641334,15.3852983 170.160956,15.0766614 C169.678088,14.7705136 169.070771,14.5415249 168.336514,14.3921845 C169.177798,13.9043392 169.847341,13.3119555 170.337675,12.6100556 C170.82801,11.9106447 171.164026,11.0270472 171.345723,9.96175226 C171.644404,8.20700241 171.385547,6.86044968 170.569153,5.92458309 C169.752759,4.99120551 168.401228,4.52327221 166.519539,4.52327221 L157.890152,4.52327221 L154.283581,25.6599187 L163.535219,25.6599187 C164.620426,25.6599187 165.621007,25.5280013 166.534473,25.2666556 C167.447938,25.0053099 168.251887,24.6120468 168.94632,24.0893553 C169.643242,23.5666639 170.223181,22.9220111 170.688625,22.155397 C171.15407,21.3887829 171.472662,20.5126525 171.639426,19.5220277 L171.639426,19.5220277 Z" id="Fill-8" fill="#181818"></path>
                    <path d="M203.350867,12.7651207 C202.94267,12.6157803 202.527006,12.4763959 202.106364,12.3444786 C201.685721,12.2150502 201.31237,12.0607318 200.991288,11.8815233 C200.667718,11.7048038 200.418817,11.4957272 200.242097,11.2518045 C200.067867,11.0078819 200.013109,10.701734 200.075334,10.325894 C200.167427,9.78577947 200.46113,9.34522526 200.951464,9.00920933 C201.444288,8.6731934 202.031693,8.50394093 202.721148,8.50394093 C203.263752,8.50394093 203.803866,8.62092425 204.343981,8.8548909 C204.884095,9.08885755 205.401809,9.44727454 205.897121,9.93263088 L208.747034,5.64656102 C207.82859,5.08404547 206.842944,4.65842529 205.790094,4.36970049 C204.734755,4.08097569 203.699328,3.93661329 202.686302,3.93661329 C201.601095,3.93661329 200.590558,4.10337675 199.657181,4.43939268 C198.721314,4.77540861 197.897453,5.24831992 197.188086,5.8556376 C196.478719,6.46295528 195.883846,7.1922343 195.403468,8.04098565 C194.92309,8.892226 194.594541,9.84053763 194.415332,10.8884095 C194.236124,11.9337924 194.248569,12.7974778 194.447689,13.4794657 C194.64681,14.1614536 194.967892,14.7264581 195.405957,15.1744794 C195.846511,15.6249896 196.371692,15.9834066 196.986476,16.2547084 C197.601261,16.5260101 198.233469,16.7749108 198.8831,16.9964324 C199.425703,17.20302 199.886169,17.3896955 200.266987,17.558948 C200.645317,17.7257114 200.943997,17.909898 201.16303,18.1040405 C201.384552,18.300672 201.526425,18.5172156 201.596117,18.7486933 C201.665809,18.9826599 201.673276,19.2589397 201.618518,19.5775326 C201.528914,20.100224 201.235211,20.5656683 200.739899,20.9788434 C200.244586,21.3895296 199.562599,21.5936281 198.693935,21.5936281 C197.934788,21.5936281 197.195553,21.4169087 196.478719,21.0609807 C195.761885,20.7075417 195.064963,20.1649382 194.392931,19.4356592 L191.358832,23.8660914 C193.295279,25.4540778 195.557786,26.248071 198.143865,26.248071 C199.393346,26.248071 200.538289,26.0763295 201.583672,25.7303576 C202.629055,25.3843856 203.54501,24.8990293 204.331536,24.2717996 C205.118062,23.6470588 205.760226,22.8928897 206.263005,22.0167593 C206.765784,21.1356509 207.111756,20.1574712 207.295943,19.0722642 C207.569734,17.4643657 207.390525,16.1626151 206.755828,15.1620343 C206.121132,14.1614536 204.986145,13.3649714 203.350867,12.7651207" id="Fill-10" fill="#181818"></path>
                    <path d="M90.3285489,3.93536879 C88.8973699,3.93536879 87.486103,4.21164855 86.0872812,4.76171907 C84.6909483,5.3142786 83.4165768,6.08089272 82.2616776,7.06156144 C81.1067784,8.04223015 80.1211317,9.20957438 79.3022484,10.5635941 C78.4833651,11.9201029 77.9332946,13.408529 77.6570149,15.0363395 C77.3807351,16.661661 77.4230482,18.1600431 77.7839542,19.5339749 C78.1473492,20.9079067 78.7347548,22.095163 79.5511491,23.0957438 C80.3675434,24.0938356 81.3755911,24.8704057 82.5752925,25.4204762 C83.7749938,25.9730358 85.0792334,26.2468265 86.4929893,26.2468265 C87.1799552,26.2468265 87.8868332,26.1771343 88.6186012,26.0377499 C89.3478802,25.8983656 90.1443624,25.6768439 91.0105368,25.3806521 L91.5879864,25.1815316 L92.6980835,18.6802456 C91.085207,20.1761387 89.4275284,20.9228408 87.7275367,20.9228408 C86.9484776,20.9228408 86.2490666,20.7735004 85.6317929,20.4723305 C85.0120302,20.1761387 84.4992948,19.7629636 84.0910977,19.2402721 C83.6829005,18.7175807 83.3991537,18.100307 83.2398573,17.39094 C83.0805609,16.6815731 83.0730938,15.9050029 83.2174562,15.0637186 C83.3568406,14.2423463 83.6281424,13.4757322 84.0313615,12.7638762 C84.4320916,12.0545093 84.9199369,11.4422136 85.4973865,10.9294781 C86.0748361,10.4142537 86.7269559,10.0085456 87.456235,9.70986476 C88.185514,9.41118394 88.9471501,9.26184352 89.7461213,9.26184352 C91.5556293,9.26184352 92.9420061,10.0384137 93.9077408,11.586576 L95.0277939,5.02804281 C94.2238447,4.65469178 93.4422965,4.37841201 92.6856384,4.20169252 C91.9289803,4.02497304 91.1424542,3.93536879 90.3285489,3.93536879" id="Fill-12" fill="#006AFF"></path>
                    <path d="M190.263918,21.2242595 C189.400232,21.052518 187.715175,20.9579358 184.840372,21.6424127 L185.494981,25.739318 L191.167427,25.739318 L190.263918,21.2242595 Z" id="Fill-14" fill="#181818"></path>
                    <path d="M190.029951,19.9862275 L189.109019,15.3317846 C187.737576,15.3541857 186.020161,15.5632623 183.889571,16.1008877 C183.655604,16.1606239 183.41666,16.2228491 183.172737,16.2900523 C181.990459,16.6136232 180.895296,16.8351448 179.902182,16.9795072 L183.01593,10.8540612 L183.682983,14.9534556 C185.813573,14.4158301 187.530988,14.2067535 188.90492,14.1818634 L186.985896,4.60416494 L181.179043,4.60416494 L169.779391,25.7408114 L175.451838,25.7408114 L177.497801,21.7160873 C179.202771,21.596615 181.273625,21.2979341 183.625736,20.6532813 C183.96673,20.5586991 184.29279,20.4790509 184.606405,20.4043807 C187.481208,19.7199038 189.166266,19.814486 190.029951,19.9862275" id="Fill-16" fill="#181818"></path>
                    <path d="M218.506679,12.8830996 C214.285323,13.9882187 211.072015,13.8836804 209.670704,13.751763 L208.919024,18.2942006 C209.319754,18.3265577 209.785199,18.3514478 210.317846,18.3614038 C212.398656,18.4012279 215.452667,18.2120634 219.133909,17.2463287 C222.625985,16.3328632 224.684394,16.3901103 225.739733,16.5643408 L226.493902,12.0019912 C224.721729,11.8153157 222.140629,11.932299 218.506679,12.8830996" id="Fill-18" fill="#006AFF"></path>
                    <path d="M219.598855,4.70447192 C215.564175,5.75981084 212.452916,5.7125197 210.962001,5.59055837 L209.834481,12.5647557 C210.822617,12.6568489 212.696839,12.7340081 215.183357,12.3905252 L215.579109,9.95876545 C216.972953,9.78951298 218.53356,9.51074421 220.226085,9.06770099 C223.949639,8.09449929 226.040405,8.22392765 227.028541,8.4230482 L227.785199,3.84825355 C226.008048,3.62922094 223.372189,3.71633618 219.598855,4.70447192" id="Fill-20" fill="#181818"></path>
                    <path d="M217.488924,20.7672779 C216.154816,21.1157388 214.922758,21.3447275 213.81515,21.4890899 L214.178545,19.2589397 C212.627893,19.4356592 211.288808,19.4779723 210.211068,19.4580602 C209.690865,19.4481042 209.232888,19.4232141 208.837136,19.3933461 L207.704638,26.1634448 C208.145192,26.2007799 208.67784,26.233137 209.300091,26.245582 C211.380901,26.2854061 214.434912,26.0962416 218.116154,25.1305069 C221.40911,24.2693105 223.425205,24.2717996 224.530324,24.42114 L225.282004,19.8687464 C223.517299,19.7094499 220.993446,19.8488343 217.488924,20.7672779" id="Fill-22" fill="#181818"></path>
                    <path d="M24.9759396,30 C25.8670041,29.62416 26.7754916,29.275699 27.7038911,28.9595951 C28.1344893,28.8102547 28.5675765,28.6708703 29.0006637,28.538953 C29.3466357,28.4319257 29.6950967,28.3298764 30.0460466,28.2328051 C35.3227412,26.759313 40.674106,26.371028 45.8487513,26.9459886 L45.8487513,21.5498216 C40.1215465,20.9873061 34.2126442,21.4701734 28.385879,23.127852 C28.0374181,23.2249233 27.6889571,23.3269725 27.3429851,23.4364888 C26.8825189,23.5758732 26.4245416,23.7252136 25.9665643,23.8845101 C25.0655438,24.1906579 24.1819464,24.5241849 23.313283,24.8801128 L24.9759396,30 Z" id="Fill-24" fill="#07C846"></path>
                    <path d="M45.8485024,4.04463619 L45.8485024,20.2032689 C39.912221,19.6357753 33.7842861,20.1609558 27.7459554,21.9132166 C27.0067203,22.1272712 26.2674853,22.3612379 25.5307392,22.6151166 C24.6421638,22.9187754 23.7510993,23.2025222 22.8575458,23.4663569 C15.2461628,25.7164191 7.52028541,26.4929893 0.000995602755,25.9553638 L0.000995602755,9.7942421 C5.86509583,10.3567577 11.9158716,9.85148926 17.8820211,8.14900855 C18.6959263,7.91753091 19.5073426,7.6611632 20.3162698,7.38488343 C21.1326641,7.10611466 21.9490583,6.84227993 22.7679416,6.59835726 C30.4539949,4.29851489 38.2545424,3.50203269 45.8485024,4.04463619" id="Fill-26" fill="#0181FD"></path>
                    <g>
                        <mask id="mask-2" fill="white">
                            <use xlink:href="#path-1"></use>
                        </mask>
                        <g id="Clip-29"></g>
                        <path d="M20.8723139,-0.000746702066 C19.9812495,0.375093338 19.072762,0.723554302 18.1443624,1.03965818 C17.7137642,1.18899859 17.280677,1.32838298 16.8475898,1.46030034 C16.5016179,1.56732764 16.1531569,1.66937692 15.8022069,1.76644819 C10.5255123,3.23994026 5.17414752,3.62822534 -0.000497801377,3.05326475 L-0.000497801377,8.44943168 C5.72670704,9.01194723 11.6356094,8.5290799 17.4623745,6.87140131 C17.8108355,6.77433004 18.1592964,6.67228076 18.5052684,6.56276446 C18.9657347,6.42338007 19.4237119,6.27403966 19.8816892,6.11474322 C20.7827097,5.80859537 21.6663071,5.47506845 22.5349705,5.11914046 L20.8723139,-0.000746702066 Z" id="Fill-28" fill="#FFA005" mask="url(#mask-2)"></path>
                    </g>
                </g>
            </g>
        </g>
    </g>
</svg>