<?xml version="1.0" encoding="UTF-8"?>
<svg width="2px" height="12px" viewBox="0 0 2 12" version="1.1" xmlns="http://www.w3.org/2000/svg" xmlns:xlink="http://www.w3.org/1999/xlink">
    <defs>
        <path d="M2.75,7.984375 C2.75,8.2969824 2.91677405,8.58584354 3.18749999,8.74214724 C3.45822594,8.89845094 3.79177406,8.89845094 4.06250001,8.74214724 C4.33322595,8.58584354 4.5,8.2969824 4.5,7.984375 C4.5,7.6717676 4.33322595,7.38290646 4.06250001,7.22660276 C3.79177406,7.07029906 3.45822594,7.07029906 3.18749999,7.22660276 C2.91677405,7.38290646 2.75,7.6717676 2.75,7.984375 L2.75,7.984375 Z M7.125,7.984375 C7.125,8.46762416 7.51675084,8.859375 8,8.859375 C8.48324916,8.859375 8.875,8.46762416 8.875,7.984375 C8.875,7.50112584 8.48324916,7.109375 8,7.109375 C7.51675084,7.109375 7.125,7.50112584 7.125,7.984375 Z M11.5,7.984375 C11.5,8.46762416 11.8917508,8.859375 12.375,8.859375 C12.8582492,8.859375 13.25,8.46762416 13.25,7.984375 C13.25,7.50112584 12.8582492,7.109375 12.375,7.109375 C11.8917508,7.109375 11.5,7.50112584 11.5,7.984375 Z" id="path-1"></path>
    </defs>
    <g id="L2-拓扑图" stroke="none" stroke-width="1" fill="none" fill-rule="evenodd">
        <g id="1.1-集群拓扑图" transform="translate(-495.000000, -489.000000)">
            <g id="Group-2" transform="translate(304.000000, 180.000000)">
                <g id="拓扑图-copy-7" transform="translate(0.000000, 270.000000)">
                    <g id="Group" transform="translate(96.000000, 34.000000)">
                        <g id="General/box-icon/16px" transform="translate(96.000000, 11.000000) rotate(-270.000000) translate(-96.000000, -11.000000) translate(88.000000, 3.000000)">
                            <g id="Icon/01-Line/more">
                                <mask id="mask-2" fill="white">
                                    <use xlink:href="#path-1"></use>
                                </mask>
                                <use id="Shape" fill-opacity="0.45" fill="#000000" fill-rule="evenodd" xlink:href="#path-1"></use>
                            </g>
                        </g>
                    </g>
                </g>
            </g>
        </g>
    </g>
</svg>