<?xml version="1.0" encoding="UTF-8"?>
<svg width="93px" height="13px" viewBox="0 0 93 13" version="1.1" xmlns="http://www.w3.org/2000/svg" xmlns:xlink="http://www.w3.org/1999/xlink">
    <g id="飞机稿" stroke="none" stroke-width="1" fill="none" fill-rule="evenodd">
        <g id="产品-icon-更新-英文" transform="translate(-2255.000000, -558.000000)">
            <g id="编组-52" transform="translate(1892.000000, 305.000000)">
                <g id="编组" transform="translate(363.000016, 253.121206)">
                    <path d="M35.4975282,7.36926686 L37.4360158,3.68187292 L38.07722,7.36926686 L35.4975282,7.36926686 Z M36.4440965,0.405994133 L30.2889235,11.4827214 L33.3521186,11.4827214 L34.3502057,9.55823656 L38.4542993,9.55823656 L38.7751433,11.4827214 L41.8387011,11.4827214 L39.5806998,0.405994133 L36.4440965,0.405994133 Z" id="Fill-1" fill="#086FFF"></path>
                    <path d="M8.86769776,7.16354565 C8.6358629,7.53590928 8.35190452,7.8590608 8.01545978,8.13324262 C7.67889411,8.40754565 7.30931284,8.62063656 6.90635315,8.77227292 C6.50339346,8.92415171 6.0918473,8.99990928 5.67171466,8.99990928 C5.25158202,8.99990928 4.86664184,8.92415171 4.51725692,8.77227292 C4.16763014,8.62063656 3.87544808,8.40754565 3.64034795,8.13324262 C3.40512688,7.8590608 3.23726733,7.53590928 3.13664834,7.16354565 C3.03590842,6.79166686 3.02454041,6.38512141 3.10206056,5.94427292 C3.17958072,5.50366686 3.33401635,5.09724262 3.56573027,4.72500019 C3.79720231,4.35300019 4.07874197,4.02972747 4.41059112,3.75542444 C4.74207747,3.48136383 5.10924002,3.26827292 5.51232064,3.11627292 C5.91503846,2.96463656 6.32682649,2.88863656 6.74695913,2.88863656 C7.16697084,2.88863656 7.55179008,2.96463656 7.90153781,3.11627292 C8.25080179,3.26827292 8.5455235,3.48136383 8.78570296,3.75542444 C9.02564054,4.02972747 9.19591882,4.35300019 9.29665874,4.72500019 C9.39727773,5.09724262 9.40888761,5.50366686 9.33124652,5.94427292 C9.2538473,6.38512141 9.09929073,6.79166686 8.86769776,7.16354565 M11.3453193,1.7870608 C10.8959201,1.2580911 10.3213519,0.844394133 9.62149359,0.54536383 C8.9215144,0.246818375 8.12696303,0.0974850419 7.23796043,0.0974850419 C6.33879919,0.0974850419 5.48946369,0.246818375 4.68947019,0.54536383 C3.88935575,0.844394133 3.17389672,1.2580911 2.54357682,1.7870608 C1.91313599,2.31578807 1.38379789,2.93530322 0.956288132,3.64524262 C0.528173698,4.35542444 0.242038458,5.12172747 0.0973986656,5.94427292 C-0.0473620626,6.7670608 -0.0307937921,7.53336383 0.14734535,8.24342444 C0.325000746,8.95360625 0.63641167,9.57287898 1.08073157,10.1017275 C1.52505146,10.6306972 2.09490322,11.0445153 2.78992402,11.3430608 C3.48482389,11.6417275 4.28167305,11.791182 5.18071336,11.791182 C6.0698369,11.791182 6.91687461,11.6417275 7.72194743,11.3430608 C8.52689932,11.0445153 9.24707487,10.6306972 9.88247409,10.1017275 C10.5178733,9.57287898 11.0492673,8.95360625 11.4771399,8.24342444 C11.9048915,7.53336383 12.1912686,6.7670608 12.3361503,5.94427292 C12.4806691,5.12172747 12.4641009,4.35542444 12.2862036,3.64524262 C12.1079435,2.93530322 11.7944767,2.31578807 11.3453193,1.7870608" id="Fill-2" fill="#086FFF"></path>
                    <polygon id="Fill-4" fill="#086FFF" points="30.2528603 9.04410322 24.4375183 9.04410322 24.7733584 7.13428504 30.3983467 7.13428504 30.8273076 4.69561838 25.2024403 4.69561838 25.5281217 2.84458807 31.3434637 2.84458807 31.7724247 0.405921405 23.0842413 0.405921405 21.135595 11.4826487 29.8277693 11.4821638"></polygon>
                    <polygon id="Fill-6" fill="#086FFF" points="50.2658677 7.05167898 46.9092812 0.405982012 44.0365608 0.405982012 42.0879145 11.4827093 44.9606349 11.4827093 46.1520992 4.83701231 49.5085647 11.4827093 52.3666519 11.4827093 54.3152981 0.405982012 51.457332 0.405982012"></polygon>
                    <path d="M59.6898945,8.97060019 C59.3112862,9.15678201 58.7262847,9.24975171 57.9340952,9.24975171 L56.8286066,9.24975171 L57.2815324,6.89920625 L58.3870209,6.89920625 C59.1792105,6.89920625 59.7283117,6.99253959 60.035252,7.17835777 C60.3417949,7.36441838 60.4554569,7.66320625 60.376238,8.07435777 C60.2968865,8.48575171 60.0679729,8.7846608 59.6898945,8.97060019 L59.6898945,8.97060019 Z M58.1082974,2.60950928 L59.1015812,2.60950928 C60.0859893,2.60950928 60.509506,2.96708504 60.3717339,3.68187292 C60.2339618,4.39702444 59.672673,4.75447898 58.6881324,4.75447898 L57.6948486,4.75447898 L58.1082974,2.60950928 Z M63.5185014,8.26538807 C63.5826184,7.9326608 63.6002374,7.61896383 63.5712257,7.32526686 C63.5418167,7.03144868 63.4513375,6.76708504 63.298596,6.53193353 C63.1457219,6.29690322 62.9270087,6.09860019 62.6424564,5.93714565 C62.357904,5.77544868 61.9985043,5.65544868 61.5638599,5.57714565 C62.0624889,5.32247898 62.456994,5.01144868 62.7472427,4.64429716 C63.0372264,4.27690322 63.2362011,3.81423656 63.3439018,3.25593353 C63.5212834,2.33556989 63.3682768,1.63035777 62.8844849,1.14041838 C62.4009578,0.650842618 61.602542,0.405994133 60.4892376,0.405994133 L55.3861063,0.405994133 L53.2514338,11.4826002 L58.7240327,11.4826002 C59.366395,11.4826002 59.9576228,11.4142366 60.4975834,11.2769032 C61.0379414,11.1399335 61.5136525,10.9342366 61.9249817,10.6600547 C62.3364434,10.3859941 62.6796813,10.0480547 62.955358,9.64623656 C63.2306372,9.24490322 63.4183517,8.7846608 63.5185014,8.26538807 L63.5185014,8.26538807 Z" id="Fill-8" fill="#050D29"></path>
                    <path d="M79.747037,4.72497595 C79.5263283,4.64667292 79.3022334,4.57333959 79.0748732,4.50473353 C78.847513,4.43612747 78.6467587,4.35540019 78.4727314,4.26218807 C78.2984623,4.16921838 78.1639811,4.05915777 78.0691671,3.93152141 C77.9742321,3.8044911 77.944119,3.64291534 77.9785858,3.44691534 C78.0284115,3.16303656 78.1863543,2.93273353 78.4518095,2.7564911 C78.7172646,2.58024868 79.0355689,2.49200625 79.4070851,2.49200625 C79.7001138,2.49200625 79.9920539,2.55333959 80.2835104,2.67564262 C80.574604,2.79818807 80.8539668,2.98655171 81.1219616,3.24133959 L82.6607548,0.993582012 C82.165037,0.69976383 81.6325546,0.476975951 81.0634284,0.325097163 C80.4940604,0.173460799 79.9358186,0.0974607994 79.3885819,0.0974607994 C78.8022828,0.0974607994 78.2566183,0.185582012 77.7519512,0.361945648 C77.2466794,0.538188072 76.8026014,0.785582012 76.4193543,1.10364262 C76.0358654,1.42218807 75.7146586,1.80412747 75.4556131,2.24970322 C75.1962048,2.69540019 75.0185494,3.19236989 74.9221632,3.74073353 C74.825656,4.28921838 74.83134,4.74230928 74.939578,5.09964262 C75.0475741,5.45721838 75.2201502,5.75333959 75.4574271,5.98836989 C75.6944623,6.22340019 75.9789044,6.41224868 76.3107535,6.55406686 C76.6422399,6.69612747 76.9832802,6.82570322 77.3341164,6.94340019 C77.6278706,7.05115777 77.8768784,7.14897595 78.0812607,7.23697595 C78.2855221,7.32521838 78.446972,7.42073353 78.5658524,7.52352141 C78.6844909,7.6264305 78.7623738,7.73903656 78.7996222,7.8614608 C78.8366287,7.98412747 78.8404987,8.12836989 78.811353,8.29479413 C78.7628576,8.56897595 78.6049148,8.81394565 78.3376456,9.0294608 C78.0700136,9.24485474 77.7018836,9.3524911 77.2327717,9.3524911 C76.822314,9.3524911 76.4232243,9.25952141 76.0359863,9.07333959 C75.6485065,8.88752141 75.2733621,8.60327898 74.9107952,8.22133959 L73.2711411,10.5423093 C74.3168771,11.3750366 75.5382126,11.791279 76.9355104,11.791279 C77.6098511,11.791279 78.2290448,11.7004911 78.7935754,11.5194002 C79.357985,11.3383093 79.8522516,11.0836426 80.2763751,10.7555214 C80.7006196,10.4275214 81.0484323,10.0332184 81.3200552,9.57285474 C81.5914362,9.11261231 81.7771944,8.59855171 81.8770877,8.0304305 C82.0253556,7.18824868 81.927881,6.50521838 81.5853894,5.98097595 C81.242656,5.45721838 80.6299928,5.03867292 79.747037,4.72497595" id="Fill-10" fill="#050D29"></path>
                    <path d="M19.6558187,0.0974850418 C18.8837615,0.0974850418 18.1207745,0.24196989 17.366253,0.530818375 C16.6119734,0.819909284 15.9232413,1.22124262 15.3002985,1.73542444 C14.6771139,2.24972747 14.1445105,2.86184868 13.7021256,3.57178807 C13.2594988,4.28184868 12.9634468,5.06281838 12.8134858,5.91493959 C12.6636457,6.76693959 12.6866236,7.55287898 12.8822985,8.27263656 C13.0782153,8.99263656 13.3961568,9.61469716 13.8366067,10.1384547 C14.2769357,10.6624547 14.821149,11.0690002 15.4688837,11.3576063 C16.1166184,11.6464547 16.8217979,11.7913032 17.5840593,11.7913032 C17.9552127,11.7913032 18.337976,11.7543335 18.7319864,11.680879 C19.1259968,11.6075456 19.5566509,11.4922729 20.0238278,11.3357881 L20.3352387,11.232879 L20.9348408,7.82463656 C20.0639786,8.60839413 19.1691711,8.99990928 18.2509019,8.99990928 C17.8307693,8.99990928 17.453569,8.92172747 17.1196639,8.76487898 C16.7856379,8.60839413 16.508331,8.39287898 16.2881061,8.11857595 C16.0673974,7.84439413 15.9141711,7.52124262 15.8284273,7.14887898 C15.7421997,6.77675777 15.7380879,6.37045474 15.815729,5.92960625 C15.891556,5.49881838 16.037768,5.09724262 16.2547277,4.72500019 C16.4714455,4.35275777 16.7356913,4.03227292 17.0471022,3.76269716 C17.3582712,3.49360625 17.7108005,3.28051534 18.1048109,3.12366686 C18.4989422,2.96718201 18.9106093,2.88863656 19.3406587,2.88863656 C20.3178239,2.88863656 21.0669032,3.29518201 21.5886223,4.1080305 L22.1934247,0.670454739 C21.7587797,0.474575951 21.3371958,0.330212315 20.9284312,0.237121405 C20.5197875,0.144030496 20.095543,0.0974850418 19.6558187,0.0974850418" id="Fill-12" fill="#086FFF"></path>
                    <path d="M72.6802948,9.15833353 C72.2144482,9.06887898 71.3036771,9.01918201 69.751339,9.37700019 L70.1051985,11.5247578 L73.1687564,11.5247578 L72.6802948,9.15833353 Z" id="Fill-14" fill="#050D29"></path>
                    <path d="M72.5540494,8.50942444 L72.0567594,6.06954565 C71.3159037,6.08178807 70.3882015,6.19221231 69.2379766,6.47342444 C69.1115981,6.50433353 68.9831638,6.53693959 68.8514642,6.57196989 C68.2131625,6.7420305 67.6217841,6.85730322 67.0854317,6.93427292 L68.7662041,3.7240911 L69.1274408,5.87196989 C70.2776658,5.59075777 71.205368,5.48033353 71.9462236,5.4680911 L70.9106463,0.448091102 L67.7741638,0.448091102 L61.6188699,11.5248184 L64.6821859,11.5248184 L65.7864551,9.41548504 C66.7076268,9.35378807 67.8264083,9.19693959 69.0953927,8.85875777 C69.2806671,8.80954565 69.4555409,8.76712141 69.6249727,8.7280911 C71.1774317,8.37027292 72.0880819,8.41996989 72.5540494,8.50942444" id="Fill-16" fill="#050D29"></path>
                    <path d="M87.9307831,4.78676989 C85.6506504,5.36616383 83.9169079,5.31149716 83.1591212,5.24204262 L82.7533799,7.62276989 C82.9692512,7.6388911 83.2215243,7.65234565 83.5094736,7.65767898 C84.6328507,7.67828504 86.2820587,7.57901231 88.2698884,7.07404262 C90.1556478,6.5948911 91.2660848,6.62470928 91.8371459,6.71622444 L92.2445802,4.32543656 C91.2872486,4.22749716 89.8938208,4.28798201 87.9307831,4.78676989" id="Fill-18" fill="#086FFF"></path>
                    <polygon id="Clip-21" points="83.2481303 3.04963956e-05 92.9412095 3.04963956e-05 92.9412095 4.66088769 83.2481303 4.66088769"></polygon>
                    <path d="M88.5205893,0.500539587 C86.3421641,1.05387292 84.6628429,1.02878201 83.8564398,0.964903224 L83.2481303,4.61981231 C83.7813383,4.66841838 84.7940587,4.70817595 86.1362096,4.52841838 L86.3501459,3.25435777 C87.1030952,3.16587292 87.9449326,3.02005474 88.8596946,2.78781231 C90.8705022,2.27678201 91.9992005,2.34478201 92.5327714,2.44878201 L92.9412941,0.0514486782 C91.9817857,-0.0626119278 90.5586075,-0.0172785945 88.5205893,0.500539587" id="Fill-20" fill="#050D29"></path>
                    <polygon id="Clip-23" points="82.098643 8.12807898 91.5899642 8.12807898 91.5899642 11.7922729 82.098643 11.7922729"></polygon>
                    <path d="M87.3812607,8.91886686 C86.6608433,9.10189716 85.9955728,9.2212911 85.3977848,9.2972911 L85.5940643,8.12807898 C84.7567015,8.22141231 84.0331398,8.24347292 83.4516781,8.23268504 C83.1698966,8.22747292 82.9227028,8.21450322 82.7100968,8.19886686 L82.098643,11.7465032 C82.3356781,11.7665032 82.6236274,11.7835941 82.9599512,11.789776 C84.0833283,11.810382 85.7324154,11.7111093 87.720366,11.2060184 C89.4978875,10.7545032 90.5861931,10.7551093 91.1833764,10.8332911 L91.5899642,8.44795777 C90.6365026,8.36480625 89.2741554,8.43789716 87.3812607,8.91886686" id="Fill-22" fill="#050D29"></path>
                </g>
            </g>
        </g>
    </g>
</svg>